<svg width="1440" height="1024" viewBox="0 0 1440 1024" fill="none" xmlns="http://www.w3.org/2000/svg">
<path d="M330.747 863.218C-26.5678 811.213 -150.791 55.4862 123.636 -76.0657C398.063 -207.618 1319.52 12.8788 1215.96 256.506C1118.6 485.545 976.204 226.174 701.777 357.726C427.35 489.278 638.665 926.382 330.747 863.218Z" fill="#FFBA46"/>
<path d="M513.512 904.651C261.797 868.521 757.701 336.416 1213.6 397.594C1669.51 458.772 1398.7 725.874 1669.99 690.536C1941.29 655.197 1020.49 1436.08 969.903 1197.59C919.312 959.106 765.226 940.781 513.512 904.651Z" fill="#39512A"/>
<path d="M15.93 1051.82C-159.962 962.163 -275.799 327.814 124.82 485.452C525.439 643.09 814.241 181.137 990.133 270.799C1166.02 360.461 266.802 840.574 823.698 920.195C1380.59 999.816 191.821 1141.49 15.93 1051.82Z" fill="#33596B"/>
<path d="M1535.25 327.956C1782.84 709.198 1346.71 381.946 866.633 433.259C386.556 484.572 708.791 355.807 1026.62 -38.057C1344.45 -431.921 1665.67 -190.735 1695.24 -143.36C1724.8 -95.9845 1287.66 -53.2857 1535.25 327.956Z" fill="#D1603D"/>
</svg>
